<svg width="1118" height="230" viewBox="0 0 1118 230" fill="none" xmlns="http://www.w3.org/2000/svg">
<g id="sheban-rouf-hw">
<path id="sheban" d="M110.915 5.34702C110.155 4.39702 109.175 3.38701 106.685 3.11701C104.195 2.84701 102.295 3.00702 98.465 3.99702C94.625 4.98702 92.225 5.75703 87.505 8.07703C82.785 10.397 80.085 12.087 74.845 15.597C69.605 19.107 66.515 21.277 61.295 25.647C56.085 30.017 53.195 32.577 48.775 37.457C44.355 42.347 42.105 45.077 39.185 50.077C36.265 55.077 35.065 57.697 34.195 62.467C33.325 67.247 33.425 69.677 34.825 73.947C36.215 78.227 37.835 80.257 41.175 83.827C44.515 87.407 46.955 88.867 51.535 91.837C56.125 94.807 59.015 96.007 64.085 98.677C69.145 101.347 72.185 102.557 76.855 105.187C81.525 107.807 84.045 109.107 87.445 111.797C90.845 114.487 92.255 115.847 93.855 118.617C95.455 121.387 95.835 122.557 95.445 125.657C95.065 128.747 94.455 130.417 91.925 134.087C89.385 137.767 87.355 139.967 82.775 144.017C78.195 148.057 75.055 150.327 69.005 154.317C62.945 158.317 59.145 160.507 52.505 163.997C45.865 167.497 42.035 169.277 35.785 171.817C29.545 174.347 26.155 175.477 21.305 176.667C16.445 177.857 14.275 177.887 11.495 177.767C8.72498 177.637 8.13499 177.427 7.43499 176.057C6.73499 174.687 6.945 173.897 8.015 170.897C9.085 167.897 9.87499 165.587 12.785 161.067C15.685 156.537 17.805 153.677 22.525 148.267C27.255 142.857 30.245 139.867 36.405 134.017C42.565 128.167 46.225 125.077 53.335 119.027C60.445 112.977 64.415 109.837 71.975 103.757C79.535 97.687 83.585 94.587 91.135 88.667C98.685 82.747 102.585 79.777 109.725 74.147C116.855 68.527 120.465 65.747 126.815 60.547C133.175 55.347 136.265 52.797 141.495 48.147C146.735 43.507 149.055 41.297 152.995 37.337C156.945 33.377 158.655 31.527 161.215 28.367C163.775 25.207 164.955 23.887 165.795 21.527C166.635 19.177 166.315 17.867 165.395 16.587C164.485 15.317 163.195 14.647 161.225 15.137C159.245 15.627 157.845 16.407 155.515 19.027C153.185 21.647 152.255 23.797 149.585 28.237C146.915 32.677 145.315 35.397 142.155 41.227C138.995 47.057 137.175 50.537 133.775 57.387C130.365 64.227 128.505 68.157 125.145 75.457C121.785 82.757 120.035 86.737 116.965 93.897C113.905 101.047 112.385 104.807 109.815 111.217C107.255 117.627 106.015 120.787 104.135 125.947C102.255 131.107 101.085 133.387 100.405 137.017C99.735 140.647 99.725 142.257 100.755 144.107C101.785 145.967 103.195 146.677 105.565 146.307C107.945 145.937 109.475 144.747 112.635 142.257C115.785 139.767 117.515 137.427 121.355 133.837C125.185 130.247 127.545 127.807 131.805 124.297C136.075 120.797 138.635 118.857 142.685 116.337C146.735 113.807 148.995 112.857 152.045 111.677C155.105 110.497 156.375 110.347 157.965 110.437C159.555 110.527 159.665 110.777 160.005 112.137C160.335 113.507 159.805 114.637 159.645 117.277C159.495 119.907 159.415 121.887 159.215 125.327C159.015 128.777 158.595 130.917 158.645 134.507C158.685 138.107 158.415 140.157 159.415 143.287C160.425 146.427 161.275 148.147 163.665 150.187C166.045 152.217 167.775 153.107 171.335 153.457C174.885 153.817 176.975 153.307 181.445 151.957C185.905 150.607 188.495 149.427 193.645 146.687C198.795 143.947 201.775 141.997 207.195 138.247C212.605 134.507 215.645 132.157 220.735 127.947C225.825 123.747 228.535 121.317 232.645 117.217C236.755 113.127 238.755 111.017 241.285 107.477C243.815 103.937 244.945 102.227 245.285 99.527C245.635 96.817 244.845 95.297 243.005 93.967C241.165 92.627 239.195 91.957 236.085 92.867C232.975 93.777 231.065 95.517 227.465 98.537C223.855 101.557 221.715 103.757 218.075 107.977C214.435 112.207 212.275 114.887 209.265 119.667C206.245 124.447 204.635 127.217 202.985 131.877C201.345 136.547 200.685 138.987 201.045 142.997C201.405 147.007 202.155 149.327 204.785 151.927C207.415 154.537 209.745 155.467 214.195 156.027C218.635 156.597 221.395 156.187 227.015 154.757C232.645 153.317 235.875 152.077 242.335 148.877C248.785 145.667 252.425 143.467 259.285 138.717C266.145 133.967 269.865 131.007 276.635 125.107C283.405 119.207 286.925 115.787 293.145 109.227C299.355 102.657 302.425 99.027 307.695 92.287C312.975 85.547 315.475 81.967 319.525 75.517C323.585 69.057 325.245 65.757 327.975 59.997C330.705 54.237 331.795 51.467 333.175 46.727C334.555 41.977 335.175 39.827 334.875 36.257C334.565 32.697 333.785 30.847 331.655 28.897C329.525 26.947 327.575 26.077 324.215 26.517C320.845 26.947 318.865 28.187 314.835 31.067C310.795 33.947 308.525 35.977 304.015 40.917C299.515 45.857 296.895 49.137 292.315 55.767C287.735 62.387 285.195 66.427 281.135 74.027C277.065 81.637 274.995 86.047 271.995 93.787C268.995 101.527 267.675 105.677 266.125 112.747C264.575 119.827 264.105 123.277 264.265 129.167C264.415 135.057 264.985 137.857 266.915 142.197C268.845 146.527 270.475 148.407 273.915 150.857C277.355 153.307 279.755 153.997 284.105 154.437C288.465 154.867 291.095 154.417 295.675 153.037C300.245 151.657 302.715 150.257 306.995 147.527C311.265 144.797 313.525 142.837 317.045 139.377C320.575 135.917 322.215 133.787 324.605 130.227C326.995 126.667 328.095 124.717 328.995 121.587C329.895 118.457 329.625 116.777 329.125 114.577C328.625 112.377 327.625 111.287 326.475 110.577C325.325 109.867 323.885 110.207 323.365 111.027C322.845 111.847 322.565 113.477 323.875 114.687C325.185 115.897 326.585 116.727 329.915 117.057C333.235 117.387 335.545 116.857 340.485 116.337C345.425 115.817 348.445 115.487 354.625 114.477C360.805 113.467 364.485 112.737 371.405 111.287C378.315 109.827 382.235 108.847 389.185 107.227C396.145 105.597 399.955 104.617 406.185 103.167C412.415 101.717 415.645 100.967 420.355 99.957C425.055 98.947 427.265 98.987 429.705 98.117C432.135 97.247 432.635 96.287 432.545 95.587C432.445 94.877 431.375 94.067 429.215 94.607C427.045 95.147 425.415 96.137 421.725 98.277C418.035 100.417 415.515 102.067 410.775 105.297C406.025 108.537 403.075 110.547 397.995 114.457C392.915 118.367 389.985 120.767 385.375 124.857C380.765 128.947 378.375 131.207 374.945 134.917C371.525 138.627 369.795 140.307 368.255 143.417C366.725 146.517 366.605 148.247 367.295 150.437C367.985 152.637 369.245 153.827 371.705 154.377C374.175 154.927 376.085 154.617 379.605 153.207C383.135 151.797 385.135 150.227 389.335 147.337C393.535 144.447 395.955 142.537 400.605 138.767C405.265 134.987 407.965 132.637 412.625 128.467C417.275 124.307 419.865 121.837 423.875 117.957C427.895 114.077 430.335 112.007 432.695 109.077C435.055 106.147 435.715 104.587 435.685 103.307C435.645 102.037 434.235 101.667 432.515 102.697C430.805 103.727 429.315 105.307 427.115 108.457C424.905 111.597 423.405 114.317 421.485 118.417C419.575 122.517 418.485 125.047 417.555 128.957C416.615 132.857 416.115 134.887 416.815 137.927C417.515 140.977 418.585 142.597 421.065 144.187C423.545 145.787 425.485 146.217 429.205 145.917C432.925 145.617 435.055 144.627 439.665 142.687C444.275 140.757 446.965 139.237 452.265 136.217C457.565 133.197 460.635 131.117 466.165 127.597C471.705 124.067 474.815 121.857 479.955 118.607C485.105 115.347 488.135 113.537 491.905 111.307C495.675 109.077 497.405 108.307 498.825 107.447C500.245 106.587 499.735 106.187 499.015 106.997C498.295 107.807 497.045 108.877 495.205 111.497C493.365 114.117 492.025 116.527 489.815 120.087C487.615 123.657 485.925 125.917 484.185 129.327C482.435 132.727 481.285 134.527 481.095 137.127C480.905 139.727 481.515 141.197 483.245 142.307C484.975 143.417 486.495 143.727 489.735 142.687C492.975 141.637 494.905 139.797 499.445 137.077C503.995 134.357 506.915 132.297 512.455 129.067C518.005 125.837 521.425 123.757 527.155 120.917C532.895 118.087 536.325 116.567 541.135 114.887C545.945 113.207 548.315 112.897 551.215 112.517C554.115 112.127 554.775 112.097 555.625 112.987C556.475 113.867 555.845 114.647 555.465 116.947C555.085 119.237 554.495 121.067 553.735 124.457C552.985 127.857 552.225 130.137 551.705 133.937C551.185 137.737 550.635 140.017 551.145 143.467C551.645 146.917 552.515 148.777 554.235 151.187C555.955 153.597 557.625 154.557 559.745 155.517C561.865 156.477 563.665 156.367 564.855 155.977C566.045 155.577 566.185 154.517 565.695 153.547C565.215 152.567 563.755 152.217 562.415 151.087C561.085 149.957 560.115 149.577 559.035 147.897C557.955 146.227 557.305 145.317 557.015 142.697C556.735 140.077 557.075 138.207 557.615 134.807C558.165 131.407 559.065 129.267 559.755 125.697C560.435 122.137 561.375 120.037 561.025 116.977C560.675 113.907 560.045 112.107 558.005 110.367C555.965 108.627 554.445 108.037 550.825 108.267C547.205 108.487 544.925 109.567 539.895 111.487C534.865 113.417 531.515 115.037 525.675 117.907C519.825 120.787 516.355 122.827 510.665 125.867C504.985 128.907 501.865 130.777 497.255 133.117C492.645 135.467 490.225 136.237 487.625 137.607C485.035 138.977 484.655 139.807 484.275 139.987C483.885 140.167 484.685 140.037 485.725 138.497C486.755 136.957 487.575 135.307 489.445 132.277C491.315 129.257 492.855 126.917 495.075 123.347C497.295 119.777 499.175 117.647 500.545 114.417C501.905 111.187 502.395 109.267 501.885 107.207C501.365 105.147 500.375 103.987 497.965 104.117C495.565 104.237 493.825 105.497 489.855 107.827C485.885 110.157 483.205 112.377 478.125 115.777C473.035 119.177 469.945 121.377 464.415 124.817C458.895 128.267 455.785 130.257 450.515 133.007C445.245 135.757 442.435 137.037 438.075 138.577C433.705 140.117 431.635 140.357 428.705 140.697C425.765 141.037 424.785 141.017 423.395 140.297C422.015 139.577 421.905 139.097 421.785 137.117C421.655 135.137 421.755 133.597 422.775 130.387C423.795 127.177 424.945 124.787 426.875 121.067C428.805 117.337 430.665 114.997 432.435 111.767C434.195 108.537 435.325 106.847 435.685 104.907C436.045 102.977 435.505 101.877 434.225 102.107C432.945 102.337 431.875 103.397 429.285 106.057C426.695 108.707 425.065 111.407 421.285 115.377C417.495 119.357 414.945 121.837 410.355 125.927C405.765 130.017 403.015 132.327 398.325 135.837C393.635 139.347 391.075 141.057 386.895 143.487C382.715 145.917 380.425 146.677 377.425 147.997C374.435 149.317 373.315 149.737 371.915 150.097C370.515 150.467 370.345 150.727 370.435 149.827C370.515 148.927 370.875 148.087 372.345 145.597C373.805 143.117 374.705 141.047 377.755 137.397C380.815 133.747 383.155 131.397 387.625 127.367C392.085 123.327 394.995 120.937 400.065 117.227C405.145 113.527 408.155 111.677 413.005 108.827C417.865 105.987 420.635 104.977 424.345 102.997C428.065 101.027 429.875 100.537 431.595 98.957C433.305 97.367 433.495 96.127 432.925 95.067C432.345 94.007 431.405 93.397 428.715 93.667C426.025 93.927 424.115 95.077 419.465 96.387C414.815 97.697 411.645 98.607 405.465 100.217C399.275 101.827 395.465 102.817 388.535 104.437C381.605 106.047 377.685 107.007 370.805 108.307C363.935 109.607 360.245 110.287 354.145 110.927C348.045 111.577 345.005 111.707 340.315 111.537C335.625 111.367 333.615 110.437 330.685 110.067C327.755 109.707 327.055 109.477 325.655 109.717C324.265 109.957 324.135 110.597 323.715 111.257C323.305 111.917 323.445 112.237 323.575 113.037C323.705 113.837 324.335 113.877 324.365 115.277C324.395 116.677 324.435 117.547 323.715 120.047C322.985 122.547 322.655 124.507 320.725 127.777C318.805 131.057 317.285 133.167 314.095 136.427C310.905 139.677 308.705 141.537 304.775 144.057C300.845 146.577 298.505 147.767 294.445 149.007C290.395 150.247 288.145 150.527 284.475 150.257C280.815 149.977 279.015 149.537 276.125 147.637C273.225 145.737 271.795 144.477 269.995 140.767C268.205 137.047 267.435 134.557 267.155 129.057C266.885 123.557 267.205 120.157 268.615 113.277C270.025 106.397 271.295 102.267 274.225 94.647C277.155 87.027 279.215 82.647 283.275 75.187C287.345 67.727 289.915 63.737 294.545 57.337C299.175 50.947 301.915 47.777 306.445 43.227C310.975 38.677 313.485 36.937 317.205 34.597C320.935 32.257 322.725 32.057 325.075 31.507C327.415 30.957 327.855 30.827 328.955 31.837C330.055 32.857 330.375 33.787 330.555 36.587C330.735 39.397 330.895 41.417 329.875 45.867C328.855 50.317 327.935 53.167 325.455 58.847C322.975 64.527 321.385 67.837 317.485 74.247C313.585 80.667 311.135 84.227 305.945 90.927C300.765 97.617 297.715 101.237 291.565 107.727C285.405 114.217 281.895 117.607 275.155 123.387C268.415 129.177 264.695 132.077 257.875 136.637C251.055 141.197 247.385 143.277 241.055 146.197C234.715 149.127 231.455 150.127 226.195 151.257C220.935 152.397 218.395 152.387 214.735 151.887C211.065 151.397 209.765 150.647 207.865 148.797C205.975 146.947 205.495 145.777 205.255 142.657C205.025 139.527 205.255 137.357 206.705 133.177C208.155 128.997 209.605 126.217 212.505 121.747C215.405 117.267 217.595 114.647 221.215 110.807C224.835 106.957 227.195 105.027 230.605 102.527C234.015 100.037 236.075 99.527 238.255 98.327C240.445 97.127 240.955 96.497 241.555 96.537C242.155 96.587 241.985 96.837 241.265 98.557C240.545 100.287 240.165 101.907 237.955 105.167C235.755 108.427 234.085 110.807 230.245 114.877C226.395 118.947 223.705 121.397 218.725 125.527C213.745 129.657 210.705 131.967 205.345 135.527C199.985 139.077 196.955 140.907 191.935 143.307C186.915 145.717 184.255 146.597 180.245 147.557C176.225 148.527 174.475 148.377 171.855 148.117C169.245 147.867 168.475 147.567 167.155 146.287C165.825 145.007 165.715 144.057 165.245 141.717C164.765 139.367 164.675 137.727 164.755 134.547C164.835 131.357 165.335 129.287 165.635 125.787C165.925 122.297 166.575 120.217 166.235 117.067C165.905 113.927 165.475 112.217 163.945 110.057C162.415 107.887 161.285 106.777 158.575 106.237C155.875 105.697 154.035 106.027 150.415 107.377C146.805 108.717 144.745 110.187 140.525 112.957C136.295 115.717 133.755 117.707 129.305 121.187C124.865 124.667 122.315 126.997 118.285 130.367C114.255 133.747 112.005 135.607 109.165 138.067C106.335 140.517 105.255 141.617 104.105 142.647C102.965 143.677 103.345 144.167 103.435 143.217C103.525 142.257 103.805 141.127 104.555 137.877C105.305 134.627 105.635 132.107 107.195 126.977C108.755 121.837 109.925 118.617 112.345 112.197C114.755 105.777 116.255 102.017 119.275 94.877C122.295 87.747 124.055 83.767 127.445 76.527C130.835 69.277 132.725 65.377 136.255 58.647C139.775 51.927 141.645 48.477 145.055 42.897C148.465 37.317 150.275 34.717 153.305 30.767C156.345 26.807 158.195 25.517 160.235 23.117C162.265 20.717 162.835 19.917 163.485 18.747C164.135 17.587 163.865 17.157 163.505 17.317C163.135 17.487 162.765 17.847 161.675 19.577C160.575 21.307 160.195 22.837 158.015 25.967C155.845 29.097 154.435 31.177 150.785 35.247C147.145 39.307 144.875 41.567 139.805 46.287C134.725 50.997 131.675 53.587 125.405 58.837C119.125 64.087 115.545 66.887 108.445 72.537C101.345 78.187 97.455 81.167 89.905 87.097C82.355 93.027 78.305 96.117 70.705 102.177C63.115 108.237 59.135 111.367 51.935 117.377C44.745 123.387 41.055 126.447 34.735 132.217C28.405 137.987 25.315 140.907 20.295 146.247C15.275 151.587 12.935 154.257 9.61501 158.917C6.28501 163.577 4.745 165.747 3.685 169.537C2.615 173.327 2.78499 175.417 4.28499 177.867C5.77499 180.317 7.585 181.397 11.165 181.797C14.735 182.207 17.015 181.347 22.155 179.887C27.305 178.417 30.565 177.147 36.885 174.457C43.215 171.767 47.045 169.967 53.785 166.437C60.525 162.897 64.365 160.757 70.595 156.787C76.835 152.807 80.065 150.657 84.965 146.567C89.865 142.477 92.155 140.397 95.085 136.317C98.015 132.237 99.135 130.117 99.605 126.167C100.085 122.217 99.435 120.047 97.475 116.557C95.515 113.077 93.595 111.647 89.825 108.737C86.055 105.827 83.435 104.657 78.625 102.007C73.805 99.367 70.765 98.157 65.755 95.507C60.745 92.847 57.925 91.587 53.565 88.727C49.205 85.867 46.985 84.407 43.945 81.217C40.905 78.027 39.615 76.387 38.355 72.767C37.085 69.137 36.905 67.297 37.625 63.077C38.345 58.867 39.285 56.397 41.965 51.677C44.645 46.967 46.775 44.227 51.035 39.507C55.305 34.777 58.145 32.237 63.285 28.047C68.425 23.847 71.535 21.727 76.735 18.517C81.925 15.317 84.665 13.827 89.255 12.017C93.845 10.217 96.175 10.117 99.675 9.48701C103.175 8.85701 104.575 9.17703 106.745 8.85703C108.915 8.53703 109.685 8.57702 110.525 7.87702C111.355 7.17702 111.685 6.30702 110.915 5.34702Z" fill="black" stroke="black"/>
<path id="rouf" d="M740.155 41.757C739.125 42.407 738.425 43.167 737.405 45.717C736.385 48.267 736.465 50.047 735.045 54.517C733.635 58.987 732.735 61.997 730.335 68.067C727.945 74.137 726.415 77.857 723.075 84.867C719.725 91.887 717.625 95.927 713.615 103.127C709.605 110.327 707.245 114.237 703.015 120.867C698.785 127.497 696.455 130.977 692.485 136.277C688.515 141.567 686.335 144.137 683.175 147.347C680.015 150.567 678.455 151.377 676.695 152.337C674.935 153.287 675.025 153.467 674.375 152.107C673.725 150.757 673.445 149.487 673.455 145.567C673.465 141.647 673.345 138.567 674.425 132.527C675.515 126.487 676.415 122.617 678.885 115.387C681.365 108.167 682.975 104.087 686.805 96.417C690.635 88.747 692.995 84.557 698.035 77.047C703.065 69.537 706.015 65.667 711.975 58.877C717.945 52.087 721.295 48.727 727.845 43.087C734.405 37.457 738.055 34.797 744.765 30.707C751.475 26.617 755.045 24.977 761.405 22.647C767.755 20.317 771.075 19.627 776.545 19.047C782.015 18.467 784.675 18.807 788.745 19.767C792.815 20.717 794.455 21.787 796.915 23.817C799.375 25.857 800.145 27.067 801.035 29.947C801.935 32.817 802.325 34.427 801.405 38.197C800.485 41.977 799.565 44.267 796.465 48.827C793.355 53.377 791.105 56.057 785.895 60.977C780.685 65.907 777.135 68.607 770.425 73.447C763.725 78.297 759.585 80.837 752.365 85.217C745.155 89.597 740.985 91.757 734.345 95.347C727.705 98.937 724.365 100.547 719.155 103.177C713.955 105.797 711.505 106.467 708.335 108.477C705.165 110.487 704.195 111.267 703.295 113.227C702.405 115.187 702.725 116.277 703.865 118.257C704.995 120.237 706.145 121.347 708.955 123.107C711.765 124.867 713.955 125.317 717.905 127.067C721.865 128.817 724.275 129.747 728.725 131.847C733.185 133.957 735.585 135.267 740.205 137.607C744.815 139.957 747.195 141.317 751.785 143.587C756.375 145.857 758.695 147.067 763.135 148.967C767.575 150.867 769.715 151.837 773.985 153.097C778.255 154.357 780.325 154.917 784.485 155.267C788.645 155.617 790.665 155.587 794.795 154.857C798.925 154.117 801.015 153.407 805.125 151.577C809.235 149.747 811.375 148.437 815.355 145.697C819.335 142.957 821.305 141.177 825.015 137.877C828.725 134.567 830.615 132.577 833.905 129.177C837.195 125.777 838.795 123.897 841.485 120.877C844.175 117.857 845.645 116.547 847.345 114.087C849.055 111.627 849.615 110.397 850.005 108.557C850.395 106.727 850.125 105.847 849.295 104.907C848.475 103.977 847.445 103.667 845.885 103.897C844.325 104.127 843.265 104.377 841.485 106.077C839.715 107.767 838.965 109.307 837.005 112.367C835.045 115.437 833.835 117.537 831.685 121.407C829.535 125.267 828.185 127.577 826.255 131.707C824.325 135.847 823.185 138.107 822.035 142.087C820.885 146.067 820.305 148.157 820.505 151.617C820.695 155.077 821.325 156.867 823.005 159.387C824.685 161.917 826.065 163.067 828.905 164.227C831.745 165.397 833.745 165.647 837.185 165.197C840.635 164.757 842.535 163.867 846.115 162.007C849.705 160.147 851.645 158.797 855.125 155.887C858.605 152.977 860.485 151.107 863.505 147.447C866.525 143.777 867.985 141.587 870.215 137.567C872.455 133.547 873.465 131.337 874.685 127.327C875.915 123.307 876.335 121.197 876.345 117.487C876.355 113.767 876.015 111.787 874.735 108.737C873.455 105.697 872.125 104.267 869.935 102.267C867.745 100.267 866.205 99.547 863.795 98.737C861.375 97.937 859.805 97.767 857.885 98.237C855.965 98.707 854.825 99.637 854.185 101.087C853.545 102.547 853.635 103.927 854.685 105.517C855.725 107.097 856.755 108.187 859.425 109.007C862.095 109.827 864.065 109.617 868.025 109.617C871.985 109.627 874.405 109.477 879.235 109.037C884.065 108.597 886.875 108.217 892.165 107.407C897.455 106.597 900.475 105.947 905.675 104.987C910.875 104.027 913.675 103.427 918.155 102.597C922.625 101.777 925.175 101.417 928.065 100.857C930.955 100.307 931.925 99.687 932.625 99.837C933.315 99.997 932.545 99.987 931.545 101.637C930.535 103.277 929.575 104.797 927.605 108.057C925.635 111.327 924.065 113.837 921.695 117.947C919.325 122.057 917.745 124.567 915.745 128.597C913.745 132.627 912.465 134.647 911.705 138.087C910.935 141.537 910.885 143.347 911.915 145.847C912.945 148.347 914.205 149.637 916.865 150.587C919.535 151.537 921.465 151.467 925.235 150.587C929.005 149.717 931.185 148.507 935.735 146.207C940.275 143.907 942.965 142.207 947.955 139.077C952.945 135.947 955.785 133.887 960.685 130.577C965.575 127.267 968.585 125.147 972.435 122.537C976.285 119.927 978.295 118.867 979.945 117.527C981.595 116.187 981.255 115.467 980.695 115.837C980.135 116.217 978.715 116.967 977.145 119.407C975.575 121.837 974.455 124.247 972.835 128.007C971.215 131.777 970.075 134.297 969.045 138.247C968.015 142.207 967.235 144.407 967.705 147.787C968.165 151.167 969.005 153.077 971.385 155.147C973.755 157.227 975.655 157.977 979.575 158.147C983.485 158.317 985.855 157.687 990.945 155.997C996.035 154.317 998.945 153.007 1005.02 149.717C1011.1 146.427 1014.52 144.277 1021.3 139.537C1028.08 134.797 1031.78 131.887 1038.91 126.017C1046.04 120.147 1049.88 116.787 1056.94 110.187C1064 103.577 1067.72 99.917 1074.2 92.987C1080.68 86.057 1083.92 82.267 1089.35 75.527C1094.79 68.777 1097.36 65.337 1101.38 59.257C1105.4 53.187 1106.97 50.217 1109.44 45.147C1111.92 40.077 1112.88 37.837 1113.76 33.917C1114.63 29.987 1114.76 28.187 1113.83 25.537C1112.89 22.887 1111.64 21.557 1109.1 20.637C1106.56 19.727 1104.59 19.577 1101.13 20.967C1097.67 22.347 1095.85 23.877 1091.79 27.557C1087.74 31.247 1085.59 33.647 1080.86 39.407C1076.14 45.167 1073.45 48.687 1068.16 56.357C1062.87 64.017 1059.93 68.597 1054.41 77.747C1048.89 86.897 1046.01 92.087 1040.56 102.117C1035.11 112.147 1032.31 117.627 1027.16 127.897C1022.01 138.167 1019.44 143.647 1014.81 153.467C1010.17 163.287 1007.96 168.297 1004 176.987C1000.04 185.687 998.175 189.977 994.995 196.957C991.825 203.927 990.415 207.117 988.115 211.837C985.805 216.567 984.655 217.967 983.475 220.557C982.295 223.147 982.355 223.787 982.225 224.787C982.095 225.787 982.325 225.597 982.815 225.577C983.305 225.557 983.955 225.307 984.665 224.677C985.375 224.037 986.045 223.507 986.365 222.407C986.685 221.307 986.365 220.497 986.275 219.157C986.185 217.817 986.315 217.117 985.905 215.697C985.495 214.277 985.245 212.847 984.235 212.067C983.235 211.277 981.995 211.127 980.865 211.777C979.735 212.427 979.155 213.867 978.595 215.317C978.035 216.767 978.215 217.577 978.075 219.037C977.945 220.487 977.555 221.347 977.925 222.587C978.295 223.827 979.055 224.457 979.935 225.247C980.825 226.037 981.415 226.327 982.335 226.527C983.255 226.717 983.525 227.057 984.535 226.237C985.555 225.407 986.155 225.027 987.405 222.387C988.665 219.747 988.885 217.937 990.825 213.037C992.755 208.127 994.095 204.917 997.075 197.867C1000.06 190.817 1001.88 186.507 1005.75 177.777C1009.61 169.047 1011.81 164.027 1016.4 154.207C1020.99 144.387 1023.54 138.907 1028.69 128.667C1033.83 118.417 1036.64 112.947 1042.12 102.967C1047.6 92.977 1050.48 87.817 1056.07 78.757C1061.66 69.707 1064.64 65.177 1070.04 57.687C1075.44 50.197 1078.22 46.737 1083.08 41.317C1087.94 35.897 1090.35 33.697 1094.35 30.577C1098.36 27.457 1100.39 26.907 1103.12 25.717C1105.84 24.517 1106.59 24.387 1107.96 24.597C1109.32 24.797 1109.52 25.017 1109.92 26.727C1110.32 28.437 1110.59 29.697 1109.95 33.137C1109.31 36.567 1108.88 38.947 1106.75 43.907C1104.62 48.867 1103.13 51.877 1099.31 57.927C1095.49 63.987 1092.98 67.437 1087.66 74.167C1082.34 80.907 1079.12 84.687 1072.7 91.587C1066.27 98.487 1062.58 102.127 1055.54 108.667C1048.5 115.207 1044.65 118.537 1037.51 124.287C1030.38 130.037 1026.65 132.887 1019.87 137.417C1013.08 141.947 1009.58 143.977 1003.57 146.927C997.565 149.877 994.565 150.907 989.805 152.177C985.035 153.457 982.825 153.407 979.765 153.297C976.705 153.187 975.815 152.807 974.505 151.617C973.185 150.437 973.185 149.707 973.195 147.357C973.215 144.997 973.495 143.207 974.575 139.847C975.665 136.497 976.975 134.177 978.625 130.587C980.275 126.997 982.025 124.927 982.835 121.897C983.655 118.867 983.655 117.067 982.705 115.457C981.765 113.837 980.645 113.077 978.105 113.807C975.575 114.537 973.945 116.337 970.045 119.087C966.145 121.837 963.415 124.207 958.605 127.557C953.795 130.907 950.945 132.917 945.985 135.837C941.025 138.757 938.225 140.247 933.825 142.147C929.425 144.047 927.135 144.557 923.985 145.337C920.835 146.107 919.675 146.187 918.055 146.017C916.435 145.857 916.135 145.827 915.875 144.507C915.615 143.177 915.915 142.157 916.765 139.407C917.605 136.657 918.235 134.527 920.105 130.757C921.975 126.997 923.625 124.557 926.105 120.597C928.585 116.627 930.475 114.437 932.485 110.927C934.495 107.427 935.795 105.787 936.145 103.067C936.505 100.347 936.005 98.787 934.265 97.337C932.525 95.897 930.845 95.617 927.445 95.847C924.045 96.067 921.775 97.397 917.275 98.467C912.785 99.537 910.095 100.197 904.955 101.197C899.825 102.187 896.805 102.797 891.615 103.437C886.425 104.077 883.635 104.367 879.005 104.387C874.375 104.417 872.015 104.067 868.445 103.547C864.885 103.037 863.395 102.167 861.165 101.807C858.935 101.447 858.265 101.577 857.295 101.757C856.335 101.937 856.195 102.307 856.345 102.717C856.495 103.137 856.965 103.447 858.045 103.827C859.125 104.207 860.155 104.047 861.745 104.627C863.335 105.217 864.435 105.457 865.985 106.747C867.535 108.047 868.425 108.927 869.485 111.097C870.545 113.267 871.135 114.607 871.295 117.597C871.455 120.587 871.265 122.467 870.275 126.047C869.295 129.617 868.425 131.737 866.385 135.457C864.355 139.167 862.955 141.257 860.105 144.597C857.255 147.937 855.405 149.657 852.135 152.167C848.865 154.677 846.915 155.757 843.765 157.167C840.615 158.577 838.975 158.847 836.385 159.217C833.785 159.597 832.625 159.547 830.805 159.017C828.985 158.487 828.295 158.097 827.295 156.557C826.295 155.027 825.935 153.977 825.815 151.347C825.695 148.707 825.755 146.907 826.705 143.397C827.655 139.887 828.675 137.627 830.565 133.777C832.465 129.937 833.815 127.667 836.195 124.177C838.575 120.687 840.255 118.987 842.455 116.327C844.655 113.677 845.985 112.737 847.195 110.917C848.395 109.087 848.355 108.307 848.475 107.217C848.605 106.137 848.335 105.627 847.825 105.497C847.315 105.357 846.965 105.477 845.925 106.527C844.875 107.587 844.205 108.497 842.605 110.777C840.995 113.057 840.235 114.817 837.885 117.917C835.535 121.027 833.985 122.927 830.865 126.307C827.745 129.687 825.885 131.647 822.305 134.837C818.735 138.027 816.795 139.697 813.005 142.257C809.225 144.817 807.185 145.967 803.385 147.627C799.585 149.287 797.725 149.867 794.015 150.547C790.305 151.217 788.605 151.257 784.825 150.987C781.045 150.707 779.145 150.287 775.115 149.167C771.075 148.047 768.975 147.187 764.645 145.387C760.315 143.597 757.995 142.447 753.465 140.197C748.935 137.947 746.555 136.607 742.005 134.157C737.455 131.717 735.045 130.357 730.705 127.977C726.355 125.607 724.025 124.357 720.285 122.287C716.555 120.207 714.765 118.947 712.045 117.607C709.335 116.267 707.965 116.157 706.725 115.587C705.485 115.017 705.095 115.507 705.835 114.757C706.575 114.007 707.475 113.617 710.415 111.837C713.365 110.047 715.545 108.677 720.575 105.817C725.605 102.967 728.965 101.287 735.575 97.577C742.185 93.867 746.355 91.697 753.625 87.287C760.895 82.877 765.065 80.357 771.905 75.527C778.755 70.697 782.385 68.057 787.865 63.117C793.345 58.177 795.805 55.617 799.305 50.837C802.805 46.057 804.185 43.657 805.365 39.217C806.555 34.777 806.385 32.357 805.215 28.637C804.035 24.917 802.635 23.077 799.485 20.617C796.345 18.157 794.135 17.217 789.475 16.317C784.815 15.407 781.985 15.317 776.185 16.107C770.385 16.897 767.025 17.727 760.505 20.257C753.975 22.787 750.375 24.517 743.565 28.757C736.755 32.997 733.075 35.717 726.445 41.457C719.805 47.207 716.435 50.607 710.385 57.477C704.345 64.347 701.365 68.247 696.225 75.827C691.085 83.397 688.675 87.617 684.675 95.337C680.685 103.057 678.995 107.147 676.235 114.437C673.475 121.727 672.335 125.557 670.895 131.797C669.445 138.037 668.905 141.157 669.035 145.627C669.155 150.107 669.705 152.147 671.525 154.187C673.335 156.217 675.275 156.717 678.105 155.827C680.925 154.927 682.335 153.307 685.665 149.727C688.995 146.147 690.845 143.417 694.735 137.907C698.625 132.407 700.915 128.917 705.125 122.207C709.335 115.497 711.705 111.577 715.795 104.357C719.885 97.137 722.035 93.087 725.575 86.107C729.125 79.117 730.775 75.427 733.515 69.427C736.265 63.417 737.465 60.487 739.305 56.087C741.145 51.677 742.085 50.137 742.735 47.407C743.385 44.677 743.075 43.577 742.565 42.447C742.045 41.317 741.185 41.097 740.155 41.757Z" fill="black" stroke="black"/>
<path id="f-cross" d="M993.515 158.687C994.475 159.207 995.135 159.387 997.495 159.037C999.865 158.687 1001.42 157.847 1005.31 156.937C1009.2 156.017 1011.9 155.357 1016.94 154.477C1021.98 153.597 1025.01 153.247 1030.53 152.537C1036.04 151.827 1039.09 151.487 1044.52 150.927C1049.94 150.367 1052.75 150.107 1057.66 149.747C1062.56 149.387 1064.86 149.317 1069.03 149.127C1073.21 148.937 1075.4 149.107 1078.53 148.807C1081.65 148.507 1083.41 148.297 1084.63 147.597C1085.86 146.907 1085.88 146.007 1084.62 145.327C1083.37 144.647 1081.54 144.297 1078.36 144.197C1075.19 144.107 1072.95 144.497 1068.74 144.867C1064.53 145.227 1062.24 145.517 1057.32 146.017C1052.4 146.507 1049.6 146.787 1044.15 147.337C1038.71 147.887 1035.66 148.227 1030.09 148.767C1024.53 149.317 1021.5 149.507 1016.33 150.047C1011.15 150.587 1008.3 150.777 1004.22 151.467C1000.13 152.157 998.205 152.497 995.905 153.497C993.595 154.487 993.175 155.407 992.705 156.437C992.225 157.477 992.555 158.167 993.515 158.687Z" fill="black" stroke="black"/>
</g>
</svg>
